Moton_kv03_j
version=1
nRows=12
nColumns=43
inDegrees=yes
endheader
time	pelvis_tilt	pelvis_list	pelvis_rotation	pelvis_tx	pelvis_ty	pelvis_tz	hip_flexion_r	hip_adduction_r	hip_rotation_r	knee_angle_r	ankle_angle_r	subtalar_angle_r	mtp_angle_r	hip_flexion_l	hip_adduction_l	hip_rotation_l	knee_angle_l	ankle_angle_l	subtalar_angle_l	mtp_angle_l	lumbar_extension	lumbar_bending	lumbar_rotation	neck_flexion	neck_lateral_bending	neck_rotation	arm_flex_r	arm_add_r	arm_rot_r	elbow_flex_r	pro_sup_r	wrist_flex_r	wrist_dev_r	hand_finger_flex_r	arm_flex_l	arm_add_l	arm_rot_l	elbow_flex_l	pro_sup_l	wrist_flex_l	wrist_dev_l	hand_finger_flex_l
      2.22750000	     -2.25795942	     20.42995954	    -93.24017942	     -0.03302337	      0.92076443	      0.34625584	     34.72166748	     -1.78524632	     -8.54779893	    -49.36210747	     -3.85629317	     -6.77848178	     25.48542932	     34.84017816	     -9.22295509	     -4.16653534	    -50.75716071	     -6.39717602	     12.03437013	     48.43869604	    -28.73459248	      1.25082565	      7.09847028	     18.52342758	     -1.86578248	     -4.54764065	     66.17639853	    -26.50245131	      1.00529702	     84.33163030	    160.58115583	      2.36203011	    -14.89824303	     70.36818682	     67.02898134	    -25.29614252	      5.74014258	     78.85434944	    155.80516938	     -6.53768852	     -8.65321200	     71.98205394
      2.23000000	     -2.26707160	     20.68219894	    -93.22649621	     -0.03285103	      0.92677560	      0.35234395	     33.92089974	     -1.92840897	     -8.94842785	    -47.73457635	     -5.58324339	     -6.22773545	     25.40673110	     33.97228421	     -9.32219977	     -4.58484449	    -49.02130420	     -8.02848465	     12.29744471	     48.34657148	    -28.47089172	      1.27305315	      7.04517329	     17.97157339	     -1.73451837	     -4.52406082	     64.66109811	    -26.59748793	      0.76764647	     84.96120064	    160.63339346	      1.91017622	    -14.80565361	     70.23138090	     65.56638384	    -25.40375614	      5.49912780	     79.47484778	    155.84193415	     -6.98211253	     -8.58276108	     71.89602988
      2.23250000	     -2.28964026	     20.71840212	    -93.21631847	     -0.03257564	      0.93318773	      0.35876836	     32.81298128	     -2.06673181	     -9.35647914	    -45.97345185	     -7.30011373	     -5.65925455	     25.50326838	     32.81727557	     -9.41453287	     -5.04565310	    -47.18824152	     -9.81296802	     12.61424709	     48.35605453	    -28.47076243	      1.30721353	      7.00919571	     17.50911386	     -1.60865066	     -4.47837758	     63.19965961	    -26.73992098	      0.59460659	     85.57178756	    160.65258224	      1.21572610	    -14.75194838	     69.94400210	     64.12240344	    -25.51901470	      5.28208229	     80.06710501	    156.00262121	     -7.68231193	     -8.53222251	     71.69164539
      2.23500000	     -2.34427361	     20.10473829	    -93.17735333	     -0.03241631	      0.94066216	      0.36605880	     30.87258495	     -2.19158450	     -9.81967202	    -44.04187012	     -8.94623876	     -5.13222612	     26.49296641	     30.80229425	     -9.50034709	     -5.58303058	    -45.13595039	    -11.49135802	     12.90488264	     48.97701304	    -29.19746348	      1.30739233	      6.94282081	     17.08587261	     -1.48379865	     -4.40004255	     61.84341257	    -27.11037586	      0.72396832	     86.09340572	    160.64662277	     -0.16740341	    -14.75856902	     69.30917118	     62.83130535	    -25.78317762	      5.32185125	     80.59286650	    156.55207689	     -9.06824412	     -8.55873106	     71.23308431
      2.23750000	     -2.35833523	     20.39409131	    -93.17147230	     -0.03211379	      0.94661235	      0.37216105	     30.07639848	     -2.33167431	    -10.25057260	    -42.25756773	    -10.87998945	     -4.32679753	     26.68430495	     29.95687879	     -9.57941428	     -6.05153161	    -43.29088128	    -13.41716457	     13.24896499	     49.03130435	    -28.91021009	      1.35349425	      6.91283901	     16.46896151	     -1.34412240	     -4.38650281	     60.43580539	    -27.21162024	      0.56114417	     86.55871879	    160.48689967	     -0.59589235	    -14.71550639	     69.22799108	     61.44177888	    -25.87084772	      5.14520163	     81.02835653	    156.49621419	     -9.54709282	     -8.54985309	     71.17045141
      2.24000000	     -2.39396838	     19.72632133	    -93.15691461	     -0.03188110	      0.95415308	      0.37955554	     27.99621791	     -2.51369391	    -10.87533857	    -40.11687182	    -12.85755953	     -3.53830736	     28.72132601	     27.85267166	     -9.64066684	     -6.68061759	    -41.13935975	    -15.35484084	     13.54714534	     50.27089109	    -29.69205987	      1.34049015	      6.86327699	     15.97552690	     -1.18229333	     -4.34515567	     59.13821433	    -27.56613285	      0.74747874	     86.92145807	    160.27805031	     -2.22098023	    -14.63537852	     68.85772885	     60.25036756	    -26.11092843	      5.26790041	     81.31837431	    156.94550175	    -11.14791109	     -8.57329702	     70.80686191
      2.24250000	     -2.44471273	     20.12382944	    -93.08975249	     -0.03165071	      0.95998028	      0.38560229	     27.32189084	     -2.57849989	    -11.25529528	    -38.31454955	    -14.90233574	     -2.67390557	     28.92436994	     27.09556679	     -9.74250306	     -7.13151922	    -39.15187131	    -17.58657990	     13.91749695	     50.28348042	    -29.33290159	      1.42090594	      6.82262519	     15.44271104	     -1.05862829	     -4.29649084	     57.71971791	    -27.73904713	      0.58365139	     87.40552647	    160.17772200	     -2.68582839	    -14.57480409	     68.84520236	     58.88878631	    -26.22445134	      5.12413230	     81.80259815	    156.88385643	    -11.64226223	     -8.55986659	     70.74988598
      2.24500000	     -2.55341072	     19.52364991	    -93.03248875	     -0.03133135	      0.96738188	      0.39297131	     25.25176617	     -2.70904127	    -12.02658990	    -36.01242630	    -17.22321704	     -1.67078858	     33.85508194	     25.02948676	     -9.83982536	     -7.73858359	    -36.81598320	    -20.00871566	     14.27078808	     53.24677693	    -30.06723249	      1.49826967	      6.82840981	     15.02936621	     -0.95217825	     -4.25823947	     56.52688234	    -28.19882076	      0.89739591	     87.61554267	    159.58033316	     -4.77255596	    -14.53277280	     69.61423228	     57.78659569	    -26.47517389	      5.39954420	     81.95046728	    156.97092532	    -13.54038832	     -8.59610948	     70.74912332
      2.24750000	     -2.60721402	     19.57294050	    -92.93774473	     -0.03109893	      0.97387516	      0.39942796	     24.01033251	     -2.75340289	    -12.51971131	    -33.84433336	    -19.34752532	     -0.90361486	     34.02609508	     23.83159896	     -9.90606612	     -8.22328082	    -34.65964567	    -22.35545410	     14.63645038	     53.25156378	    -30.13377909	      1.56843231	      6.76089182	     14.60851563	     -0.79403706	     -4.14595769	     55.14579725	    -28.37109292	      0.83273942	     88.02251295	    159.91008056	     -5.88151877	    -14.42034204	     69.30301853	     56.57379653	    -26.62311421	      5.40716358	     82.30079947	    157.33036311	    -14.58393495	     -8.56188028	     70.31258701
      2.25000000	     -2.74583549	     19.27968370	    -92.84511973	     -0.03090214	      0.98076663	      0.40646676	     22.28086202	     -2.78642519	    -13.37644886	    -31.52685036	    -21.48343373	      0.14997964	     34.70382168	     22.12062776	    -10.05572457	     -8.86809339	    -32.34361874	    -24.46638157	     15.15136863	     53.61733477	    -30.51567527	      1.69151045	      6.75519843	     13.96481157	     -0.67313801	     -4.11192358	     53.87302142	    -28.53404043	      0.81829796	     88.20399751	    159.80872747	     -7.18066176	    -14.42938963	     69.19288986	     55.44128706	    -26.77717228	      5.57048860	     82.40291729	    157.51559704	    -16.03068914	     -8.57065764	     69.70389320
      2.25250000	     -2.89198358	     19.13942511	    -92.71068215	     -0.03068652	      0.98744481	      0.41328789	     20.69545569	     -2.76853644	    -14.21441443	    -29.12805674	    -23.69088421	      1.15837575	     35.39418711	     20.63443000	    -10.19621700	     -9.46012939	    -30.03605052	    -26.80751984	     15.69415907	     54.02419328	    -30.76093701	      1.84761957	      6.74067753	     13.41768507	     -0.55027987	     -4.04496398	     52.60037277	    -28.70963362	      0.80043202	     88.41525138	    159.73114199	     -8.45059586	    -14.44841464	     69.31668749	     54.34838798	    -26.91221261	      5.73767415	     82.47462295	    157.60314327	    -17.42537415	     -8.57619645	     69.21268212
      2.25500000	     -3.00082383	     19.64072911	    -92.62558163	     -0.03047379	      0.99315276	      0.41919156	     19.97129731	     -2.71458407	    -14.85027384	    -26.91930832	    -25.95610246	      2.02947190	     35.22267380	     19.95077738	    -10.32938418	    -10.04880217	    -27.83779731	    -29.23467752	     16.14405809	     53.84091591	    -30.33847182	      1.98513962	      6.73459644	     12.89564702	     -0.41919049	     -3.93104071	     51.30202809	    -28.76471258	      0.64127829	     88.67045835	    159.70302718	     -9.02591790	    -14.41116442	     69.30492428	     53.16607686	    -26.98755149	      5.73461547	     82.66945023	    157.58265075	    -18.12038543	     -8.56204158	     68.98859575
